<?xml version="1.0" encoding="UTF-8"?>
<!DOCTYPE svg PUBLIC "-//W3C//DTD SVG 1.1//EN" "http://www.w3.org/Graphics/SVG/1.1/DTD/svg11.dtd">
<svg xmlns="http://www.w3.org/2000/svg" version="1.1" width="432px" height="168px" style="shape-rendering:geometricPrecision; text-rendering:geometricPrecision; image-rendering:optimizeQuality; fill-rule:evenodd; clip-rule:evenodd" xmlns:xlink="http://www.w3.org/1999/xlink">
<g><path style="opacity:1" fill="#fefefe" d="M -0.5,-0.5 C 143.5,-0.5 287.5,-0.5 431.5,-0.5C 431.5,55.5 431.5,111.5 431.5,167.5C 287.5,167.5 143.5,167.5 -0.5,167.5C -0.5,111.5 -0.5,55.5 -0.5,-0.5 Z"/></g>
<g><path style="opacity:1" fill="#5271ff" d="M 27.5,20.5 C 30.7814,23.1475 34.4481,25.3142 38.5,27C 43.6935,27.51 48.5268,29.01 53,31.5C 58.9482,28.8377 65.1148,26.6711 71.5,25C 73.6414,23.6924 75.6414,22.1924 77.5,20.5C 78.8126,25.3357 78.3126,30.0024 76,34.5C 72.7742,38.3916 68.9409,41.5583 64.5,44C 61.2959,46.8688 58.4626,50.0354 56,53.5C 56.0326,69.5678 63.1992,81.2345 77.5,88.5C 77.8333,88.3333 78.1667,88.1667 78.5,88C 75.8519,86.3508 73.5186,84.3508 71.5,82C 74.7082,71.9176 81.3749,66.751 91.5,66.5C 87.6276,71.0242 86.7943,76.0242 89,81.5C 91.7226,84.5568 94.056,87.8901 96,91.5C 119.095,92.6275 132.261,104.627 135.5,127.5C 135.333,129.5 135.167,131.5 135,133.5C 118.594,148.185 99.5937,152.851 78,147.5C 60.7174,151.854 48.0507,146.188 40,130.5C 38.7873,127.232 38.454,123.899 39,120.5C 46.5972,127.253 54.7638,128.086 63.5,123C 67.3035,119.19 71.6369,116.19 76.5,114C 74.8333,113.333 73.1667,113.333 71.5,114C 61.1851,121.74 51.3518,121.24 42,112.5C 41,110.5 40,108.5 39,106.5C 36.6996,95.3956 37.0329,84.3956 40,73.5C 42.6576,66.8515 45.8243,60.5181 49.5,54.5C 48.2331,52.0565 46.7331,49.7231 45,47.5C 39.6988,43.2002 34.6988,38.5336 30,33.5C 28.1015,29.3795 27.2681,25.0462 27.5,20.5 Z"/></g>
<g><path style="opacity:1" fill="#100912" d="M 305.5,42.5 C 312.459,44.3955 318.625,47.7288 324,52.5C 325.004,57.1527 323.837,61.1527 320.5,64.5C 319.28,65.7111 318.113,65.7111 317,64.5C 314.451,56.3979 310.617,49.0646 305.5,42.5 Z"/></g>
<g><path style="opacity:1" fill="#120e11" d="M 367.5,47.5 C 369.308,47.4914 370.975,47.9914 372.5,49C 375.236,50.3622 377.569,52.1956 379.5,54.5C 378.672,55.4147 377.672,56.0814 376.5,56.5C 375.668,66.8173 375.168,77.1506 375,87.5C 372.057,89.2226 368.89,90.2226 365.5,90.5C 365.5,88.1667 365.5,85.8333 365.5,83.5C 358.5,83.5 351.5,83.5 344.5,83.5C 344.333,94.8382 344.5,106.172 345,117.5C 345.75,118.126 346.584,118.626 347.5,119C 356.22,119.839 364.887,119.505 373.5,118C 374.701,117.097 375.535,115.931 376,114.5C 377.607,108.518 379.107,102.518 380.5,96.5C 381.328,101.132 381.828,105.798 382,110.5C 382.991,113.815 384.491,116.815 386.5,119.5C 384.321,124.838 380.321,127.671 374.5,128C 363.123,128.856 351.79,128.522 340.5,127C 338.697,126.363 337.364,125.197 336.5,123.5C 335.167,107.5 335.167,91.5 336.5,75.5C 339.5,77 342.5,78.5 345.5,80C 352.492,80.4996 359.492,80.6663 366.5,80.5C 366.5,72.1667 366.5,63.8333 366.5,55.5C 355.495,55.6665 344.495,55.4998 333.5,55C 333.043,54.586 332.709,54.086 332.5,53.5C 343.5,52.8333 354.5,52.1667 365.5,51.5C 366.63,50.3777 367.297,49.0443 367.5,47.5 Z"/></g>
<g><path style="opacity:1" fill="#050406" d="M 235.5,47.5 C 240.063,49.0593 243.396,52.0593 245.5,56.5C 224.167,57.8333 202.833,57.8333 181.5,56.5C 181.291,55.914 180.957,55.414 180.5,55C 197.5,54.6667 214.5,54.3333 231.5,54C 233.085,51.9307 234.419,49.764 235.5,47.5 Z"/></g>
<g><path style="opacity:1" fill="#0c040e" d="M 311.5,70.5 C 315.477,71.4861 318.81,73.4861 321.5,76.5C 320.833,77.8333 319.833,78.8333 318.5,79.5C 317.167,90.5 317.167,101.5 318.5,112.5C 323.092,108.953 327.592,105.286 332,101.5C 332.167,102 332.333,102.5 332.5,103C 325.627,112.572 318.627,122.072 311.5,131.5C 309.177,128.874 306.843,126.207 304.5,123.5C 306.016,121.609 307.35,119.609 308.5,117.5C 309.499,104.517 309.832,91.5171 309.5,78.5C 305.116,78.8256 300.783,78.4922 296.5,77.5C 296.291,76.914 295.957,76.414 295.5,76C 299.833,75.6667 304.167,75.3333 308.5,75C 309.883,73.7292 310.883,72.2292 311.5,70.5 Z"/></g>
<g><path style="opacity:1" fill="#0d070a" d="M 239.5,129.5 C 239.405,127.214 238.738,125.214 237.5,123.5C 237.051,121.467 236.051,119.8 234.5,118.5C 217.051,120.919 199.718,123.919 182.5,127.5C 179.742,124.623 178.242,121.289 178,117.5C 182.604,116.695 186.271,114.361 189,110.5C 194.766,101.887 199.933,92.8868 204.5,83.5C 192.848,82.6675 181.181,82.1675 169.5,82C 169.043,81.586 168.709,81.086 168.5,80.5C 192.826,79.6669 217.16,79.1669 241.5,79C 243,76.8333 244.5,74.6667 246,72.5C 246.718,71.5494 247.551,71.3828 248.5,72C 251.683,75.0155 254.683,78.1822 257.5,81.5C 241.51,82.3329 225.51,82.8329 209.5,83C 212.21,84.0152 214.543,85.5152 216.5,87.5C 214.807,88.2283 213.307,89.2283 212,90.5C 205.585,99.5861 198.418,108.086 190.5,116C 204.477,115.658 218.477,115.491 232.5,115.5C 230.281,109.414 226.781,104.081 222,99.5C 220.759,98.1233 220.592,96.79 221.5,95.5C 230.057,100.885 237.89,107.219 245,114.5C 246.714,119.083 246.881,123.749 245.5,128.5C 243.808,131.858 241.808,132.191 239.5,129.5 Z"/></g>
<g><path style="opacity:1" fill="#fcfcff" d="M 105.5,112.5 C 115.818,112.322 118.151,116.489 112.5,125C 102.102,125.471 99.7682,121.305 105.5,112.5 Z"/></g>
<g><path style="opacity:1" fill="#d49852" d="M 237.5,123.5 C 238.738,125.214 239.405,127.214 239.5,129.5C 237.926,127.898 237.259,125.898 237.5,123.5 Z"/></g>
</svg>
